<svg width="200px" height="200px" viewBox="0 0 200 200" version="1.1" xmlns="http://www.w3.org/2000/svg">
		<g transform="translate(0.000000,200.000000) scale(0.100000,-0.100000)" fill="#000000" stroke="none">
		<path class="social-icon-fill SocialIconFill" d="M858 1990 c-147 -24 -303 -85 -425 -168 -194 -132 -334 -331 -400 -569 -25 -87 -28 -115 -28 -253 0 -138 3 -166 28 -254 86 -310 306 -559 597
-675 453 -180 986 2 1231 421 265 452 135 1039 -294 1330 -88 60 -231 124 -327 148 -97 24 -294 34 -382 20z m722 -368 c0 -5 -13 -21 -30 -37 -26 -25 -30 -36 -30 -79 0 -29 7 -59 15 -70 22 -30 22 -402 -1 -434 -18 -26 -46 -28 -68 -6 -14 13 -16 48 -16 229 0 132 4 216 10 220 6 3 10 19 10 34 0 27 -5 23 -78 -53 l-79 -81 5 -72 c6 -102 -8 -134 -100 -230 -48 -51 -78 -90 -78 -103 0 -23 25 -50 127 -137 83 -71 118 -141 110 -222 -13 -144 -127 -249 -315 -288 -180 -37 -376 22 -440 132 -19 33 -22 51 -20 107 3 55 9 75 34 110 55 79 152 126 306 149 l77 11 -20 41 c-15 28 -20 52 -16 79 l5 38 -37 0 c-143 0 -271 118 -271 249 l0 31 -132 0 -133 0 195 195 195 195 387 0 c214 0 388 -4 388 -8z" fill="#444444"></path>
		<path class="social-icon-fill SocialIconFill" d="M899 1447 c-55 -36 -71 -79 -66 -170 6 -91 36 -163 91 -216 29 -28 45 -35 89 -39 102 -8 157 46 157 154 0 110 -54 233 -122 274 -45 27 -106 26
-149 -3z" fill="#444444"></path>
		<path class="social-icon-fill SocialIconFill" d="M970 738 c-138 -19 -220 -86 -220 -181 0 -80 36 -128 125 -169 41 -19 67 -23 150 -23 88 0 105 3 145 25 59 33 90 81 90 137 0 70 -34 117 -139
192 -47 33 -51 33 -151 19z" fill="#444444"></path>
		</g>
	</svg>
